<?xml version="1.0" standalone="no"?>
<!DOCTYPE svg PUBLIC "-//W3C//DTD SVG 20010904//EN"
 "http://www.w3.org/TR/2001/REC-SVG-20010904/DTD/svg10.dtd">
<svg version="1.0" xmlns="http://www.w3.org/2000/svg"
 width="1071.000000pt" height="384.000000pt" viewBox="0 0 1071.000000 384.000000"
 preserveAspectRatio="xMidYMid meet">

<g transform="translate(0.000000,384.000000) scale(0.100000,-0.100000)"
fill="#000000" stroke="none">
<path d="M311 3382 c-19 -10 -47 -37 -64 -60 -30 -42 -30 -42 -19 -114 83
-556 307 -980 659 -1251 194 -149 431 -257 668 -303 47 -10 92 -22 99 -28 10
-8 16 -50 20 -146 9 -208 51 -446 108 -620 55 -168 184 -420 259 -505 l31 -35
852 0 852 0 27 28 c24 25 27 35 27 103 0 62 -4 79 -19 93 -10 9 -81 46 -157
82 -335 156 -656 375 -949 647 -174 162 -355 357 -355 384 0 6 44 28 98 49
266 105 560 291 731 463 200 201 328 481 375 820 23 162 21 297 -4 339 -30 50
-76 74 -131 69 -59 -5 -91 -29 -125 -95 -51 -100 -183 -212 -296 -251 -64 -22
-247 -51 -473 -76 -295 -33 -423 -71 -574 -174 l-61 -42 -130 86 c-227 150
-288 168 -640 185 -220 11 -338 28 -401 60 -71 37 -137 100 -194 185 -32 48
-68 93 -81 102 -38 24 -94 27 -133 5z"/>
<path d="M9800 2958 c0 -29 -3 -84 -7 -122 l-6 -68 -284 4 -283 3 0 -77 0 -78
273 0 274 0 -8 -57 c-5 -32 -11 -73 -14 -90 l-6 -33 -217 0 -217 0 0 -275 -1
-275 611 0 611 0 0 275 1 275 -304 0 c-259 0 -303 2 -303 15 0 8 5 48 11 90
l11 75 339 0 339 0 0 73 0 72 -331 -4 -332 -3 6 23 c3 13 11 53 17 87 6 35 15
75 20 88 8 21 6 24 -23 28 -18 3 -62 10 -98 16 -36 5 -69 10 -72 10 -4 0 -7
-24 -7 -52z m-132 -790 l-3 -143 -100 0 -100 0 -3 143 -3 142 106 0 106 0 -3
-142z m340 0 l-3 -143 -90 0 -90 0 -3 143 -3 142 96 0 96 0 -3 -142z m360 0
l-3 -143 -100 0 -100 0 -3 143 -3 142 106 0 106 0 -3 -142z"/>
<path d="M7435 2955 c-38 -19 -74 -36 -78 -37 -4 -2 17 -57 46 -123 30 -66 64
-149 77 -185 l23 -66 86 34 c47 19 88 36 90 39 3 2 -1 20 -9 41 -20 58 -152
332 -159 331 -3 0 -37 -16 -76 -34z"/>
<path d="M6502 2738 l3 -233 -177 2 -178 2 0 -80 0 -80 180 7 180 7 0 -234 0
-235 -198 -79 -198 -78 41 -62 c22 -34 45 -70 50 -80 10 -16 24 -10 158 60
l148 77 -3 -309 c-3 -273 -5 -312 -20 -335 -22 -33 -60 -42 -180 -42 -49 -1
-88 -3 -88 -5 0 -3 15 -46 33 -98 l32 -93 35 0 c60 1 209 38 261 66 28 16 59
43 72 63 22 35 22 44 27 431 l5 395 130 67 c72 37 130 70 130 75 -1 33 -29
143 -37 143 -5 0 -22 -8 -36 -19 -34 -23 -176 -101 -186 -101 -3 0 -5 87 -4
193 l3 192 113 -4 112 -3 0 82 0 82 -112 -4 -113 -3 2 233 3 232 -95 0 -95 0
2 -232z"/>
<path d="M8950 2898 c-101 -172 -219 -334 -323 -444 l-48 -52 56 -63 c30 -35
59 -64 64 -64 19 0 461 569 461 594 0 7 -116 78 -161 99 -3 1 -26 -30 -49 -70z"/>
<path d="M4382 2877 c4 -39 7 -117 7 -171 l1 -99 -280 6 -280 6 0 -83 0 -84
280 5 280 6 0 -146 0 -147 -290 0 -290 0 0 -102 c0 -117 -17 -429 -26 -470
l-6 -28 292 0 291 0 -7 -22 c-30 -97 -83 -191 -145 -262 -85 -94 -282 -211
-441 -262 -32 -10 -58 -21 -58 -25 0 -4 15 -17 34 -28 33 -21 102 -87 129
-125 13 -18 15 -18 58 4 198 101 409 266 494 385 56 78 91 156 114 254 l18 76
188 3 188 2 -7 -355 -7 -355 103 0 103 0 -3 355 -4 355 241 0 c186 0 241 -3
241 -12 -1 -57 -23 -255 -31 -269 -13 -25 -100 -49 -176 -49 -35 0 -63 -2 -63
-5 0 -2 11 -21 26 -42 14 -20 33 -63 42 -95 9 -32 22 -58 28 -58 29 0 205 50
242 69 81 41 93 77 122 354 11 108 23 211 27 227 l6 30 -352 0 -351 0 0 155 0
155 288 0 287 0 0 290 0 290 -287 0 -288 0 0 58 c1 31 6 103 13 160 7 56 11
105 8 107 -2 3 -54 5 -114 5 l-109 0 3 -162 4 -163 -170 0 -170 0 3 90 c2 50
10 121 18 159 7 38 13 70 11 71 -1 1 -56 5 -122 8 l-121 7 8 -73z m543 -562
l0 -140 -170 0 -170 0 -3 129 c-1 72 0 136 2 143 4 11 41 13 173 11 l168 -3 0
-140z m570 0 l0 -140 -187 -3 -188 -2 0 145 0 145 188 -2 187 -3 0 -140z
m-1105 -394 c0 -59 -3 -129 -6 -155 l-7 -46 -183 0 -183 0 5 143 c3 78 7 148
10 155 2 9 48 12 184 12 l180 0 0 -109z m538 -48 l3 -153 -173 0 -173 0 3 142
c1 79 5 149 7 156 4 10 42 12 167 10 l163 -3 3 -152z"/>
<path d="M6990 2440 l0 -75 600 0 600 0 0 75 0 75 -600 0 -600 0 0 -75z"/>
<path d="M9030 2403 c-52 -100 -172 -285 -244 -377 -35 -45 -106 -122 -159
-173 -90 -86 -95 -92 -78 -107 10 -9 35 -46 56 -82 37 -63 39 -65 54 -46 9 10
51 62 94 115 43 54 81 97 84 97 3 0 4 -218 1 -485 l-5 -485 86 0 87 0 -4 589
-4 588 72 109 c40 60 93 135 117 167 24 33 43 60 41 62 -7 6 -157 95 -160 95
-2 0 -19 -30 -38 -67z"/>
<path d="M7896 2242 c-2 -9 -12 -55 -21 -102 -45 -232 -120 -513 -217 -818
l-62 -193 -368 3 -368 3 0 -80 0 -80 717 2 718 3 3 77 3 78 -265 -4 -266 -3
14 43 c7 24 39 125 70 224 32 99 86 277 121 395 73 246 85 281 114 339 16 31
18 42 9 45 -7 3 -31 10 -53 16 -22 7 -63 25 -92 41 -46 25 -52 27 -57 11z"/>
<path d="M7152 2138 c-66 -25 -82 -34 -76 -47 24 -55 196 -577 223 -676 18
-66 36 -123 40 -128 6 -6 176 45 187 56 9 8 -275 828 -286 826 -3 0 -42 -15
-88 -31z"/>
<path d="M9222 1652 l3 -73 702 -2 703 -2 0 75 0 75 -705 0 -706 0 3 -73z"/>
<path d="M9865 1499 c-33 -23 -61 -42 -63 -44 -2 -2 19 -36 46 -76 27 -41 61
-98 76 -126 14 -29 28 -53 30 -53 2 0 36 20 75 43 l70 44 -39 66 c-46 80 -121
187 -129 187 -3 0 -33 -19 -66 -41z"/>
<path d="M10408 1398 l-67 -49 50 -62 c28 -34 77 -106 110 -159 l60 -97 70 52
c38 29 69 57 69 62 0 10 -217 306 -222 304 -2 0 -33 -23 -70 -51z"/>
<path d="M9276 1429 c-49 -149 -84 -246 -107 -298 -16 -35 -29 -69 -29 -75 0
-6 36 -25 79 -42 l79 -30 71 196 c39 108 71 199 71 202 0 4 -30 16 -67 29 -38
12 -74 24 -80 27 -7 2 -15 -2 -17 -9z"/>
<path d="M9545 1253 c8 -216 18 -278 52 -309 42 -39 107 -46 383 -42 271 3
277 4 332 56 24 22 88 154 88 181 0 6 -19 15 -42 21 -24 7 -66 25 -95 40 l-51
29 -17 -74 c-25 -114 -28 -115 -242 -115 -135 0 -180 3 -203 15 -44 23 -53 70
-44 236 l7 139 -88 0 -87 0 7 -177z"/>
</g>
</svg>
